# xmcd CD database file
#
# Track frame offsets:
#	150
#	12444
#	30391
#	46939
#
# Disc length: 838 seconds
#
# Revision: 0
# Processed by: cddbd v1.5.2PL0 Copyright (c) Steve Scherf et al.
# Submitted via: CDex 1.51
#
DISCID=24034404
DTITLE=These Four Walls - Down Falls An Empire [Bonus Edition]
DYEAR=2009
DGENRE=Salsa
TTITLE0=2U3
TTITLE1=Sweet December (Accoustic)
TTITLE2=Fly Home (Accoustic)
TTITLE3=All Night Thing (Accoustic)
EXTD=YEAR: 2009
EXTT0=
EXTT1=
EXTT2=
EXTT3=
PLAYORDER=
